<?xml version="1.0"?>
<svg xmlns="http://www.w3.org/2000/svg" xmlns:xlink="http://www.w3.org/1999/xlink" xmlns:svgjs="http://svgjs.com/svgjs" version="1.1" width="30" height="40" x="0" y="0" viewBox="0 0 24 24" style="enable-background:new 0 0 512 512" xml:space="preserve"><g><path xmlns="http://www.w3.org/2000/svg" d="M12,24a1,1,0,0,1-.71-.29L3.12,15.54a5,5,0,0,1,0-7.08L11.29.29a1,1,0,1,1,1.42,1.42L4.54,9.88a3,3,0,0,0,0,4.24l8.17,8.17a1,1,0,0,1,0,1.42A1,1,0,0,1,12,24Z" fill="#d7c8c5" data-original="#000000"/><path xmlns="http://www.w3.org/2000/svg" d="M22,24a1,1,0,0,1-.71-.29l-9.58-9.59a3,3,0,0,1,0-4.24L21.29.29a1,1,0,1,1,1.42,1.42l-9.59,9.58a1,1,0,0,0,0,1.42l9.59,9.58a1,1,0,0,1,0,1.42A1,1,0,0,1,22,24Z" fill="#d7c8c5" data-original="#000000"/></g></svg>
